name C:\Users\antoi\Documents\MyRepositories\upper-imu-dc\Results\main_tracking\Case_82\kinematics.mot
datacolumns 10
datarows 52
range 6.25000000 6.76000000
endheader 
time	clav_prot	clav_elev	scapula_abduction	scapula_elevation	scapula_upward_rot	scapula_winging	plane_elv	shoulder_elv	axial_rot	
          6.25000000	        -26.34711441	        -26.21934910	         19.37645654	        -26.98983971	         59.78196905	         17.18154765	         15.83551177	        107.30645147	         31.67363972	
          6.26000000	        -26.52272935	        -26.19951507	         18.95607518	        -26.98698031	         59.64582627	         17.16118391	         16.39978911	        107.27118242	         31.32854143	
          6.27000000	        -26.70310354	        -26.17961500	         18.52566628	        -26.98432597	         59.50763997	         17.14002980	         16.97021956	        107.23438092	         30.97799371	
          6.28000000	        -26.88816649	        -26.15964604	         18.08566957	        -26.98186730	         59.36780194	         17.11801439	         17.54680509	        107.19620576	         30.62279286	
          6.29000000	        -27.07784517	        -26.13960739	         17.63653980	        -26.97959730	         59.22671512	         17.09506812	         18.12945635	        107.15685162	         30.26367224	
          6.30000000	        -27.27206205	        -26.11950007	         17.17874806	        -26.97751110	         59.08479115	         17.07112259	         18.71799194	        107.11654895	         29.90129530	
          6.31000000	        -27.47073328	        -26.09932650	         16.71278288	        -26.97560560	         58.94244795	         17.04611035	         19.31213969	        107.07556283	         29.53625109	
          6.32000000	        -27.67376733	        -26.07909030	         16.23915039	        -26.97387925	         58.80010707	         17.01996480	         19.91153841	        107.03419116	         29.16905135	
          6.33000000	        -27.88106363	        -26.05879663	         15.75837430	        -26.97233218	         58.65819064	         16.99262102	         20.51573906	        106.99276274	         28.80012728	
          6.34000000	        -28.09251113	        -26.03845361	         15.27099567	        -26.97096722	         58.51711764	         16.96401792	         21.12420494	        106.95163570	         28.42982551	
          6.35000000	        -28.30798683	        -26.01807491	         14.77757291	        -26.96979159	         58.37729985	         16.93410178	         21.73631162	        106.91119600	         28.05840310	
          6.36000000	        -28.52735424	        -25.99768294	         14.27868151	        -26.96881914	         58.23913747	         16.90283072	         22.35134787	        106.87185568	         27.68602265	
          6.37000000	        -28.75046198	        -25.97731221	         13.77491354	        -26.96807264	         58.10301441	         16.87017943	         22.96851880	        106.83405020	         27.31274886	
          6.38000000	        -28.97714282	        -25.95701241	         13.26687618	        -26.96758587	         57.96929375	         16.83614354	         23.58695277	        106.79823423	         26.93854870	
          6.39000000	        -29.20721370	        -25.93685007	         12.75518855	        -26.96740471	         57.83831351	         16.80074243	         24.20571326	        106.76487484	         26.56329817	
          6.40000000	        -29.44047706	        -25.91690779	         12.24047640	        -26.96758653	         57.71038343	         16.76401899	         24.82381667	        106.73444182	         26.18679822	
          6.41000000	        -29.67672222	        -25.89728086	         11.72336707	        -26.96819756	         57.58578298	         16.72603616	         25.44025446	        106.70739659	         25.80879735	
          6.42000000	        -29.91572778	        -25.87807027	         11.20448300	        -26.96930777	         57.46476080	         16.68686918	         26.05401942	        106.68417918	         25.42902354	
          6.43000000	        -30.15726704	        -25.85937281	         10.68443096	        -26.97098360	         57.34753606	         16.64659381	         26.66413481	        106.66519145	         25.04722398	
          6.44000000	        -30.40110944	        -25.84127375	         10.16379966	        -26.97328261	         57.23430096	         16.60527793	         27.26967403	        106.65078726	         24.66319240	
          6.45000000	        -30.64702080	        -25.82384228	          9.64316043	        -26.97624986	         57.12522334	         16.56297640	         27.86977301	        106.64126658	         24.27678718	
          6.46000000	        -30.89476502	        -25.80712866	          9.12306557	        -26.97991589	         57.02044902	         16.51972780	         28.46363888	        106.63686952	         23.88794340	
          6.47000000	        -31.14410445	        -25.79116385	          8.60404959	        -26.98429631	         56.92010421	         16.47555421	         29.05055308	        106.63777244	         23.49667217	
          6.48000000	        -31.39479862	        -25.77596074	          8.08663346	        -26.98939253	         56.82429764	         16.43046302	         29.62987191	        106.64408619	         23.10305082	
          6.49000000	        -31.64660209	        -25.76151544	          7.57133049	        -26.99519260	         56.73312278	         16.38444896	         30.20102805	        106.65585527	         22.70720910	
          6.50000000	        -31.89926138	        -25.74780823	          7.05865389	        -27.00167155	         56.64666025	         16.33749586	         30.76353416	        106.67305748	         22.30931430	
          6.51000000	        -32.15251378	        -25.73480285	          6.54912154	        -27.00879079	         56.56498145	         16.28957622	         31.31699042	        106.69560089	         21.90956084	
          6.52000000	        -32.40608709	        -25.72244496	          6.04325926	        -27.01649698	         56.48815233	         16.24064982	         31.86109350	        106.72332128	         21.50816395	
          6.53000000	        -32.65969751	        -25.71066263	          5.54160675	        -27.02472216	         56.41623628	         16.19066473	         32.39564051	        106.75598506	         21.10535088	
          6.54000000	        -32.91304794	        -25.69936856	          5.04472291	        -27.03338537	         56.34929623	         16.13956075	         32.92052706	        106.79329549	         20.70135098	
          6.55000000	        -33.16582826	        -25.68846414	          4.55318662	        -27.04239563	         56.28739549	         16.08727441	         33.43574062	        106.83489949	         20.29638614	
          6.56000000	        -33.41771637	        -25.67784503	          4.06759477	        -27.05165620	         56.23059605	         16.03374601	         33.94134910	        106.88039685	         19.89066120	
          6.57000000	        -33.66838032	        -25.66740803	          3.58855686	        -27.06106975	         56.17895489	         15.97892767	         34.43748587	        106.92934975	         19.48435414	
          6.58000000	        -33.91748126	        -25.65705869	          3.11668701	        -27.07054430	         56.13251880	         15.92279230	         34.92433258	        106.98129201	         19.07760652	
          6.59000000	        -34.16467735	        -25.64671712	          2.65259412	        -27.07999761	         56.09131935	         15.86533982	         35.40210261	        107.03573608	         18.67051711	
          6.60000000	        -34.40962840	        -25.63632143	          2.19687084	        -27.08936024	         56.05536870	         15.80660048	         35.87102659	        107.09217798	         18.26314007	
          6.61000000	        -34.65200104	        -25.62582925	          1.75008261	        -27.09857687	         56.02465714	         15.74663529	         36.33134018	        107.15010089	         17.85548771	
          6.62000000	        -34.89147290	        -25.61521824	          1.31275996	        -27.10760713	         55.99915263	         15.68553541	         36.78327210	        107.20898039	         17.44753443	
          6.63000000	        -35.12773533	        -25.60448668	          0.88539439	        -27.11642619	         55.97880164	         15.62342160	         37.22703209	        107.26829266	         17.03922115	
          6.64000000	        -35.36049675	        -25.59365309	          0.46843445	        -27.12502491	         55.96353185	         15.56044236	         37.66280132	        107.32752212	         16.63046432	
          6.65000000	        -35.58949130	        -25.58275352	          0.06227523	        -27.13340851	         55.95325835	         15.49676776	         38.09072927	        107.38616312	         16.22117329	
          6.66000000	        -35.81448092	        -25.57184199	         -0.33274161	        -27.14159724	         55.94788820	         15.43258846	         38.51092374	        107.44373074	         15.81125685	
          6.67000000	        -36.03525811	        -25.56099062	         -0.71632803	        -27.14962677	         55.94732595	         15.36811398	         38.92344246	        107.49977059	         15.40063236	
          6.68000000	        -36.25164947	        -25.55028902	         -1.08825001	        -27.15754824	         55.95148091	         15.30356993	         39.32828597	        107.55386508	         14.98923107	
          6.69000000	        -36.46351829	        -25.53984224	         -1.44832812	        -27.16542701	         55.96027220	         15.23919371	         39.72539495	        107.60563889	         14.57700993	
          6.70000000	        -36.67076771	        -25.52976774	         -1.79643767	        -27.17334077	         55.97363596	         15.17522870	         40.11464867	        107.65475900	         14.16395756	
          6.71000000	        -36.87334108	        -25.52019221	         -2.13250574	        -27.18137732	         55.99153030	         15.11191916	         40.49586419	        107.70093531	         13.75009882	
          6.72000000	        -37.07122121	        -25.51124631	         -2.45650630	        -27.18963070	         56.01394056	         15.04950293	         40.86879825	        107.74391796	         13.33549996	
          6.73000000	        -37.26442850	        -25.50305733	         -2.76845380	        -27.19819559	         56.04088460	         14.98820203	         41.23315156	        107.78349142	         12.92027405	
          6.74000000	        -37.45301783	        -25.49574033	         -3.06839504	        -27.20716049	         56.07241791	         14.92821185	         41.58857463	        107.81946531	         12.50458510	
          6.75000000	        -37.63707534	        -25.48938865	         -3.35640144	        -27.21660044	         56.10863799	         14.86968991	         41.93467580	        107.85166240	         12.08865243	
          6.76000000	        -37.81671437	        -25.48406577	         -3.63256136	        -27.22657057	         56.14968646	         14.81274653	         42.27103006	        107.87990631	         11.67275406	
